<svg width="169" height="177" viewBox="0 0 169 177" fill="none" xmlns="http://www.w3.org/2000/svg">
<path fill-rule="evenodd" clip-rule="evenodd" d="M16.3615 68.6905C17.338 69.6505 18.8899 69.6357 19.8578 68.6729C31.4608 57.5128 43.6779 51.8362 56.1346 51.6939C68.2639 51.5571 80.5179 56.8191 92.5404 67.2449C95.2128 69.5206 99.3436 74.2587 102.977 79.8529C99.9283 84.2385 97.8966 89.432 96.8934 94.4355C95.4138 101.825 96.4912 108.62 98.9298 111.985C100.281 113.849 102.023 114.991 104.061 115.467C106.668 116.073 110.212 115.532 114.279 112.083C119.889 107.301 121.253 100.474 119.577 92.9601C118.692 89.0101 116.904 84.865 114.678 80.8815C117.254 78.8251 120.459 77.6354 124.36 78.0637C132.617 78.9144 138.807 85.6943 143.211 93.6712C147.03 100.572 151.631 110.767 150.415 118.867C150.003 121.62 148.799 123.986 151.071 126.236C154.549 129.717 157.737 126.113 158.308 122.332C159.53 114.21 156.635 104.426 153.778 96.9333C148.534 83.1445 138.694 70.7429 125.406 69.0331C119.177 68.2602 113.892 69.9166 109.61 72.9943C105.546 67.3546 101.164 62.6886 98.2877 60.3468C84.0583 48.9922 69.7376 43.7117 55.8817 44.5149C42.0397 45.3101 28.6148 52.1064 16.3439 65.1942C15.384 66.1706 15.385 67.7305 16.3615 68.6905ZM108.656 90.802C109.52 93.0936 110.104 95.345 110.275 97.4859C110.489 100.208 109.964 102.733 107.842 104.527C107.482 104.826 107.044 105.244 106.685 105.544C106.414 104.598 105.947 102.739 105.94 101.201C105.94 97.7675 106.721 93.6819 108.287 89.8768C108.435 90.1956 108.552 90.4948 108.656 90.802Z" fill="#4D2C5E"/>
<path fill-rule="evenodd" clip-rule="evenodd" d="M106.358 105.805C106.115 105.67 105.882 105.584 105.9 105.775C105.929 106.016 106.091 105.978 106.358 105.805Z" fill="#4D2C5E"/>
<path fill-rule="evenodd" clip-rule="evenodd" d="M23.1598 63.2611C24.2904 60.7358 25.3827 58.049 26.1621 55.4878C27.3611 51.4911 27.8753 47.8346 26.8892 45.1728C26.5816 43.8451 25.2428 43.0208 23.923 43.3422C22.5952 43.6498 21.771 44.9886 22.0924 46.3084C22.1604 46.9667 21.9307 47.6501 21.7133 48.4182C21.2165 50.2287 20.1048 52.1189 18.8952 54.1575C17.3489 56.7576 15.489 59.3551 13.9023 61.7582C12.4586 63.9319 11.2548 65.9487 10.4889 67.5475C9.27942 70.0633 9.21391 72.1756 9.48762 73.4128C9.56399 73.7359 12.2456 78.5397 16.8319 76.6261C18.4716 75.9365 22.535 73.9759 22.7357 73.8784C25.1771 72.5423 29.7119 70.1261 34.0309 68.8626C35.3957 68.4601 36.7134 68.1032 37.9141 68.0525C37.9777 68.1627 38.0413 68.2728 38.1187 68.375C39.24 69.9673 41.4208 70.3422 43.0211 69.2347C43.9081 68.7042 45.0649 67.2101 45.3745 66.3154C45.9682 64.5774 45.3073 63.1783 43.6851 62.022C41.4753 60.4522 38.2786 60.0031 34.6849 60.2971C30.908 60.6235 26.6287 61.956 23.1598 63.2611ZM19.1708 71.3287C18.903 71.8505 18.812 72.2334 19.1733 72.3186C19.578 72.4154 19.3087 71.7264 19.1708 71.3287Z" fill="#4D2C5E"/>
</svg>
