<svg width="18" height="18" viewBox="0 0 18 18" fill="none" xmlns="http://www.w3.org/2000/svg">
<path d="M16.5094 11.5066C16.1121 11.5066 15.7922 11.8265 15.7922 12.2238V15.6832H1.43437V12.2238C1.43437 11.8265 1.11445 11.5066 0.717187 11.5066C0.319922 11.5066 0 11.8265 0 12.2238V16.4003C0 16.7976 0.319922 17.1175 0.717187 17.1175H16.5094C16.9066 17.1175 17.2266 16.7976 17.2266 16.4003V12.2238C17.2266 11.8265 16.9066 11.5066 16.5094 11.5066Z" fill="black"/>
<path d="M8.08606 12.3574C8.49036 12.7652 8.98606 12.5402 9.13723 12.3574L13.2611 7.9207C13.5318 7.62891 13.5142 7.17539 13.2224 6.90469C12.9306 6.63398 12.4771 6.65156 12.2099 6.94336L9.33059 10.0406V0.717187C9.33059 0.319922 9.01067 0 8.61341 0C8.21614 0 7.89622 0.319922 7.89622 0.717187V10.0441L5.01692 6.94687C4.74622 6.65508 4.2927 6.64102 4.00091 6.9082C3.70911 7.17891 3.69505 7.63242 3.96223 7.92422L8.08606 12.3574Z" fill="black"/>
</svg>
