<svg width="24" height="17" viewBox="0 0 24 17" fill="none" xmlns="http://www.w3.org/2000/svg">
<path d="M3.25 0C1.45507 0 0 1.45508 0 3.25V13.75C0 15.5449 1.45507 17 3.25 17H13.7523C15.5472 17 17.0023 15.5449 17.0023 13.75V12.1707L21.5434 15.2824C22.3729 15.8508 23.4999 15.2568 23.4999 14.2512V2.74842C23.4999 1.74298 22.3732 1.14898 21.5436 1.71708L17.0023 4.8272V3.25C17.0023 1.45508 15.5472 0 13.7523 0H3.25ZM17.0023 10.3524V6.6452L21.9999 3.22263V13.7769L17.0023 10.3524ZM15.5023 3.25V13.75C15.5023 14.7165 14.7187 15.5 13.7523 15.5H3.25C2.2835 15.5 1.5 14.7165 1.5 13.75V3.25C1.5 2.2835 2.2835 1.5 3.25 1.5H13.7523C14.7188 1.5 15.5023 2.2835 15.5023 3.25Z" fill="#212121"/>
</svg>
