<svg width="1789" height="759" viewBox="0 0 1789 759" fill="none" xmlns="http://www.w3.org/2000/svg">
<path d="M1150.69 703.189C1150.69 705.862 1148.52 708.032 1145.84 708.032C1143.17 708.032 1141 705.862 1141 703.189C1141 700.516 1143.17 698.345 1145.84 698.345C1148.52 698.345 1150.69 700.51 1150.69 703.189Z" stroke="#4D2C5E" stroke-opacity="0.1" stroke-width="2" stroke-miterlimit="10" stroke-linecap="round" stroke-linejoin="round"/>
<path d="M1197.68 745.197C1200.36 745.197 1202.52 743.028 1202.52 740.353C1202.52 737.678 1200.36 735.51 1197.68 735.51C1195.01 735.51 1192.84 737.678 1192.84 740.353C1192.84 743.028 1195.01 745.197 1197.68 745.197Z" stroke="#4D2C5E" stroke-opacity="0.1" stroke-width="2" stroke-miterlimit="10" stroke-linecap="round" stroke-linejoin="round"/>
<path d="M1179.45 730.395C1185.15 730.395 1189.78 725.771 1189.78 720.065C1189.78 714.36 1185.15 709.735 1179.45 709.735C1173.74 709.735 1169.12 714.36 1169.12 720.065C1169.12 725.771 1173.74 730.395 1179.45 730.395Z" stroke="#4D2C5E" stroke-opacity="0.1" stroke-width="2" stroke-miterlimit="10" stroke-linecap="round" stroke-linejoin="round"/>
<path d="M1197.44 720.065L1194 726.087L1192.17 732.792L1185.47 734.613L1179.45 738.064L1173.42 734.613L1166.71 732.792L1164.89 726.087L1161.44 720.065L1164.89 714.038L1166.71 707.333L1173.42 705.512L1179.45 702.061L1185.47 705.512L1192.17 707.333L1194 714.038L1197.44 720.065Z" stroke="#4D2C5E" stroke-opacity="0.1" stroke-width="2" stroke-miterlimit="10" stroke-linecap="round" stroke-linejoin="round"/>
<path d="M1192.84 740.353C1192.84 737.681 1195.01 735.51 1197.68 735.51C1199.12 735.51 1200.42 736.147 1201.31 737.15C1204.99 732.437 1207.2 726.51 1207.2 720.06C1207.2 704.728 1194.77 692.301 1179.44 692.301C1164.11 692.301 1151.68 704.728 1151.68 720.06C1151.68 735.391 1164.11 747.819 1179.44 747.819C1184.83 747.819 1189.85 746.279 1194.11 743.624C1193.33 742.761 1192.84 741.616 1192.84 740.353Z" stroke="#4D2C5E" stroke-opacity="0.1" stroke-width="2" stroke-miterlimit="10" stroke-linecap="round" stroke-linejoin="round"/>
<path d="M1179.45 682.5C1166.49 682.5 1155.07 689.058 1148.32 699.033C1149.74 699.879 1150.69 701.424 1150.69 703.194C1150.69 705.867 1148.52 708.038 1145.84 708.038C1145.18 708.038 1144.56 707.903 1143.99 707.666C1142.63 711.551 1141.89 715.718 1141.89 720.065C1141.89 740.81 1158.71 757.63 1179.45 757.63C1200.2 757.63 1217.02 740.81 1217.02 720.065C1217.02 699.321 1200.19 682.5 1179.45 682.5Z" stroke="#4D2C5E" stroke-opacity="0.1" stroke-width="2" stroke-miterlimit="10" stroke-linecap="round" stroke-linejoin="round"/>
<path d="M1291.84 79.7262L1268.54 71.8107C1266.07 70.9764 1264.76 68.3001 1265.59 65.8373C1266.43 63.3746 1269.1 62.0598 1271.56 62.8941L1294.87 70.8096C1297.33 71.6438 1298.64 74.3201 1297.81 76.7762C1296.97 79.2456 1294.31 80.5671 1291.84 79.7262Z" stroke="#4D2C5E" stroke-opacity="0.1" stroke-width="3" stroke-miterlimit="10"/>
<path d="M1288.78 88.7495L1265.47 80.8341C1263.01 79.9998 1261.7 77.3235 1262.53 74.8674C1263.36 72.4047 1266.04 71.0898 1268.5 71.9241L1291.81 79.8329C1294.27 80.6672 1295.59 83.3435 1294.75 85.8063C1293.91 88.269 1291.24 89.5838 1288.78 88.7495Z" stroke="#4D2C5E" stroke-opacity="0.1" stroke-width="3" stroke-miterlimit="10"/>
<path d="M1268.06 38.5535C1268.09 38.6336 1268.11 38.7071 1268.14 38.7872C1268.66 40.449 1271.73 50.9807 1270.45 62.6671L1295.45 70.9163C1301.37 60.765 1310.11 54.1376 1311.52 53.1098C1311.58 53.0631 1311.65 53.0164 1311.71 52.9696C1312.39 52.4824 1313.05 51.9618 1313.69 51.4079C1317.46 48.1576 1320.42 43.8795 1322.09 38.8205C1327.01 23.9239 1318.92 7.85934 1304.02 2.94052C1289.13 -1.97829 1273.06 6.11073 1268.14 21.0073C1266.47 26.073 1266.3 31.2721 1267.4 36.1242C1267.58 36.9384 1267.8 37.7527 1268.06 38.5535Z" stroke="#4D2C5E" stroke-opacity="0.1" stroke-width="3" stroke-miterlimit="10"/>
<path d="M1266.75 81.3813C1266.47 86.3202 1269.51 91.0254 1274.44 92.6539C1279.3 94.2557 1284.47 92.3536 1287.22 88.3291L1266.75 81.3813Z" stroke="#4D2C5E" stroke-opacity="0.1" stroke-width="3" stroke-miterlimit="10"/>
<path d="M1278.27 65.1165L1285.7 42.6047C1286.44 40.3889 1285.23 37.9996 1283.01 37.2655C1280.8 36.5313 1278.41 37.7393 1277.67 39.9551C1276.94 42.1709 1278.15 44.5603 1280.36 45.2944L1289.28 48.2377" stroke="#4D2C5E" stroke-opacity="0.1" stroke-width="3" stroke-miterlimit="10"/>
<path d="M1288.07 68.3535L1295.5 45.8417C1296.23 43.6259 1298.62 42.4246 1300.84 43.1521C1303.05 43.8862 1304.26 46.2755 1303.53 48.4913C1302.79 50.7072 1300.41 51.9085 1298.19 51.181L1289.27 48.2377" stroke="#4D2C5E" stroke-opacity="0.1" stroke-width="3" stroke-miterlimit="10"/>
<path d="M1327.37 46.5759L1334.9 49.0654" stroke="#4D2C5E" stroke-opacity="0.1" stroke-width="3" stroke-miterlimit="10" stroke-linecap="round"/>
<path d="M1330.82 37.0919L1338.66 35.9106" stroke="#4D2C5E" stroke-opacity="0.1" stroke-width="3" stroke-miterlimit="10" stroke-linecap="round"/>
<path d="M1322.1 54.7117L1327.7 60.3313" stroke="#4D2C5E" stroke-opacity="0.1" stroke-width="3" stroke-miterlimit="10" stroke-linecap="round"/>
<path d="M1257.44 23.4967L1249.92 21.0139" stroke="#4D2C5E" stroke-opacity="0.1" stroke-width="3" stroke-miterlimit="10" stroke-linecap="round"/>
<path d="M1260.32 13.8193L1254.73 8.19971" stroke="#4D2C5E" stroke-opacity="0.1" stroke-width="3" stroke-miterlimit="10" stroke-linecap="round"/>
<path d="M1256.84 33.1675L1249 34.3488" stroke="#4D2C5E" stroke-opacity="0.1" stroke-width="3" stroke-miterlimit="10" stroke-linecap="round"/>
<path d="M1055.99 158.079L986.789 137.406C981.756 135.904 978.899 130.607 980.401 125.574L994.222 79.2889C995.724 74.2556 1001.02 71.3987 1006.05 72.9005L1075.26 93.5733C1080.29 95.075 1083.15 100.372 1081.65 105.406L1067.83 151.691C1066.32 156.718 1061.02 159.581 1055.99 158.079Z" stroke="#4D2C5E" stroke-opacity="0.1" stroke-width="4" stroke-miterlimit="10" stroke-linecap="round"/>
<path d="M982.032 120.101L1069.46 146.217" stroke="#4D2C5E" stroke-opacity="0.1" stroke-width="4" stroke-miterlimit="10" stroke-linecap="round"/>
<path d="M1025.96 140.744C1025.58 141.999 1024.26 142.715 1023 142.34C1021.75 141.964 1021.03 140.638 1021.41 139.383C1021.78 138.128 1023.11 137.412 1024.36 137.787C1025.62 138.163 1026.33 139.489 1025.96 140.744Z" fill="#4D2C5E" fill-opacity="0.5"/>
<path d="M1031.2 150.679L1011.6 144.825L1008.96 153.667L1028.56 159.521L1031.2 150.679Z" stroke="#4D2C5E" stroke-opacity="0.1" stroke-width="4" stroke-miterlimit="10" stroke-linecap="round"/>
<path d="M1001.69 152.001L1035.53 162.109" stroke="#4D2C5E" stroke-opacity="0.1" stroke-width="4" stroke-miterlimit="10" stroke-linecap="round"/>
<path d="M1728.72 85.136C1750.41 85.136 1768 76.8 1768 66.5169C1768 56.2338 1750.41 47.8977 1728.72 47.8977C1707.03 47.8977 1689.44 56.2338 1689.44 66.5169C1689.44 76.8 1707.03 85.136 1728.72 85.136Z" stroke="#4D2C5E" stroke-opacity="0.1" stroke-width="3" stroke-miterlimit="10" stroke-linecap="round" stroke-linejoin="round"/>
<path d="M1744.61 76.2221C1755.89 57.6935 1757.91 38.3383 1749.13 32.9911C1740.35 27.6439 1724.08 38.3296 1712.8 56.8582C1701.52 75.3868 1699.49 94.742 1708.28 100.089C1717.06 105.436 1733.33 94.7508 1744.61 76.2221Z" stroke="#4D2C5E" stroke-opacity="0.1" stroke-width="3" stroke-miterlimit="10" stroke-linecap="round" stroke-linejoin="round"/>
<path d="M1749.12 100.081C1757.9 94.7337 1755.88 75.3785 1744.6 56.8499C1733.32 38.3213 1717.05 27.6356 1708.27 32.9828C1699.49 38.33 1701.51 57.6852 1712.79 76.2138C1724.07 94.7425 1740.34 105.428 1749.12 100.081Z" stroke="#4D2C5E" stroke-opacity="0.1" stroke-width="3" stroke-miterlimit="10" stroke-linecap="round" stroke-linejoin="round"/>
<path d="M1728.72 71.4455C1731.44 71.4455 1733.65 69.2388 1733.65 66.5167C1733.65 63.7946 1731.44 61.5879 1728.72 61.5879C1726 61.5879 1723.79 63.7946 1723.79 66.5167C1723.79 69.2388 1726 71.4455 1728.72 71.4455Z" stroke="#4D2C5E" stroke-opacity="0.1" stroke-width="3" stroke-miterlimit="10" stroke-linecap="round" stroke-linejoin="round"/>
<path d="M1742.54 654.143L1710.1 661.63L1708.65 655.308C1708.31 653.843 1709.22 652.384 1710.68 652.042L1737.81 645.776C1739.28 645.441 1740.74 646.348 1741.08 647.813L1742.54 654.143Z" stroke="#4D2C5E" stroke-opacity="0.1" stroke-width="3" stroke-miterlimit="10" stroke-linecap="round"/>
<path d="M1731.88 620.144C1746.17 608.617 1748.42 587.683 1736.89 573.386C1725.37 559.09 1704.43 556.845 1690.13 568.372C1675.84 579.899 1673.59 600.833 1685.12 615.13C1696.65 629.426 1717.58 631.671 1731.88 620.144Z" stroke="#4D2C5E" stroke-opacity="0.1" stroke-width="3" stroke-miterlimit="10"/>
<path d="M1726.48 623.676L1695.47 564.85L1691.6 557.711C1671.38 568.367 1663.64 593.391 1674.29 613.606C1684.95 633.822 1709.97 641.568 1730.19 630.912L1726.4 623.725" stroke="#4D2C5E" stroke-opacity="0.1" stroke-width="3" stroke-miterlimit="10" stroke-linecap="round" stroke-linejoin="round"/>
<path d="M1702.31 577.74C1712.46 572.387 1719.16 565.154 1717.28 561.585C1715.4 558.015 1705.64 559.461 1695.49 564.814C1685.34 570.167 1678.63 577.4 1680.52 580.969C1682.4 584.539 1692.15 583.093 1702.31 577.74Z" stroke="#4D2C5E" stroke-opacity="0.1" stroke-width="3" stroke-miterlimit="10"/>
<path d="M1704.69 626.907C1711.86 628.288 1719.53 627.346 1726.48 623.676C1733.44 620.005 1738.55 614.213 1741.46 607.521C1734.3 606.14 1726.63 607.082 1719.67 610.752C1712.71 614.423 1707.6 620.215 1704.69 626.907Z" stroke="#4D2C5E" stroke-opacity="0.1" stroke-width="3" stroke-miterlimit="10"/>
<path d="M1726.51 623.64C1734.63 619.358 1734.27 602.718 1725.7 586.474C1717.14 570.229 1703.61 560.531 1695.49 564.812C1687.37 569.094 1687.73 585.734 1696.3 601.979C1704.86 618.223 1718.39 627.921 1726.51 623.64Z" stroke="#4D2C5E" stroke-opacity="0.1" stroke-width="3" stroke-miterlimit="10"/>
<path d="M1681.56 609.768L1740.39 578.757" stroke="#4D2C5E" stroke-opacity="0.1" stroke-width="3" stroke-miterlimit="10"/>
<path d="M1720.63 634.534L1724.07 648.853" stroke="#4D2C5E" stroke-opacity="0.1" stroke-width="3" stroke-miterlimit="10"/>
<path d="M1706.21 662.963L1747.56 653.047" stroke="#4D2C5E" stroke-opacity="0.1" stroke-width="3" stroke-miterlimit="10" stroke-linecap="round"/>
<path d="M1764.73 446.524L1782.04 429.219L1734.09 381.269L1716.78 398.574L1764.73 446.524Z" stroke="#4D2C5E" stroke-opacity="0.1" stroke-width="3" stroke-miterlimit="10" stroke-linecap="round" stroke-linejoin="round"/>
<path d="M1786.71 451.206L1782.03 429.216L1764.72 446.521L1786.71 451.206Z" stroke="#4D2C5E" stroke-opacity="0.1" stroke-width="3" stroke-miterlimit="10" stroke-linecap="round" stroke-linejoin="round"/>
<path d="M1784.53 440.946L1776.45 449.019" stroke="#4D2C5E" stroke-opacity="0.1" stroke-width="3" stroke-miterlimit="10" stroke-linecap="round" stroke-linejoin="round"/>
<path d="M1711.68 385.381L1720.88 376.18C1723.12 373.941 1726.75 373.941 1728.99 376.18L1734.07 381.268L1716.77 398.573L1711.68 393.485C1709.44 391.246 1709.44 387.613 1711.68 385.381Z" stroke="#4D2C5E" stroke-opacity="0.1" stroke-width="3" stroke-miterlimit="10" stroke-linecap="round" stroke-linejoin="round"/>
<path d="M1738.75 385.937L1721.45 403.25" stroke="#4D2C5E" stroke-opacity="0.1" stroke-width="3" stroke-miterlimit="10" stroke-linecap="round" stroke-linejoin="round"/>
<path d="M1773.38 437.868L1730.1 394.597" stroke="#4D2C5E" stroke-opacity="0.1" stroke-width="3" stroke-miterlimit="10" stroke-linecap="round" stroke-linejoin="round"/>
<path d="M412.028 655.707L408.843 662.967" stroke="#4D2C5E" stroke-opacity="0.1" stroke-width="4" stroke-miterlimit="10" stroke-linecap="round" stroke-linejoin="round"/>
<path d="M435.146 665.848L431.961 673.108" stroke="#4D2C5E" stroke-opacity="0.1" stroke-width="4" stroke-miterlimit="10" stroke-linecap="round" stroke-linejoin="round"/>
<path d="M458.27 675.984L455.085 683.244" stroke="#4D2C5E" stroke-opacity="0.1" stroke-width="4" stroke-miterlimit="10" stroke-linecap="round" stroke-linejoin="round"/>
<path d="M396.556 648.922L394.963 652.557" stroke="#4D2C5E" stroke-opacity="0.1" stroke-width="4" stroke-miterlimit="10" stroke-linecap="round" stroke-linejoin="round"/>
<path d="M404.291 652.32L402.699 655.944" stroke="#4D2C5E" stroke-opacity="0.1" stroke-width="4" stroke-miterlimit="10" stroke-linecap="round" stroke-linejoin="round"/>
<path d="M419.719 659.078L418.126 662.714" stroke="#4D2C5E" stroke-opacity="0.1" stroke-width="4" stroke-miterlimit="10" stroke-linecap="round" stroke-linejoin="round"/>
<path d="M427.45 662.47L425.863 666.101" stroke="#4D2C5E" stroke-opacity="0.1" stroke-width="4" stroke-miterlimit="10" stroke-linecap="round" stroke-linejoin="round"/>
<path d="M442.883 669.235L441.29 672.871" stroke="#4D2C5E" stroke-opacity="0.1" stroke-width="4" stroke-miterlimit="10" stroke-linecap="round" stroke-linejoin="round"/>
<path d="M466.381 679.541L464.794 683.171" stroke="#4D2C5E" stroke-opacity="0.1" stroke-width="4" stroke-miterlimit="10" stroke-linecap="round" stroke-linejoin="round"/>
<path d="M450.613 672.627L449.027 676.257" stroke="#4D2C5E" stroke-opacity="0.1" stroke-width="4" stroke-miterlimit="10" stroke-linecap="round" stroke-linejoin="round"/>
<path d="M453.269 737.591L376.931 640.321L476.732 684.077L453.269 737.591Z" stroke="#4D2C5E" stroke-opacity="0.1" stroke-width="4" stroke-miterlimit="10" stroke-linecap="round" stroke-linejoin="round"/>
<path d="M449.378 706.891L428.495 680.281L455.794 692.246L449.378 706.891Z" stroke="#4D2C5E" stroke-opacity="0.1" stroke-width="4" stroke-miterlimit="10" stroke-linecap="round" stroke-linejoin="round"/>
<path d="M639.775 23.5004L611.001 37.4126L668.352 156.027L697.125 142.115L639.775 23.5004Z" stroke="#4D2C5E" stroke-opacity="0.1" stroke-width="4" stroke-miterlimit="10" stroke-linecap="round" stroke-linejoin="round"/>
<path d="M646.641 37.7341L632.261 44.6841" stroke="#4D2C5E" stroke-opacity="0.1" stroke-width="4" stroke-miterlimit="10" stroke-linecap="round" stroke-linejoin="round"/>
<path d="M659.93 65.2141L645.541 72.1741" stroke="#4D2C5E" stroke-opacity="0.1" stroke-width="4" stroke-miterlimit="10" stroke-linecap="round" stroke-linejoin="round"/>
<path d="M673.221 92.6941L658.831 99.6541" stroke="#4D2C5E" stroke-opacity="0.1" stroke-width="4" stroke-miterlimit="10" stroke-linecap="round" stroke-linejoin="round"/>
<path d="M686.501 120.184L672.121 127.134" stroke="#4D2C5E" stroke-opacity="0.1" stroke-width="4" stroke-miterlimit="10" stroke-linecap="round" stroke-linejoin="round"/>
<path d="M651.041 46.834L643.851 50.304" stroke="#4D2C5E" stroke-opacity="0.1" stroke-width="4" stroke-miterlimit="10" stroke-linecap="round" stroke-linejoin="round"/>
<path d="M655.481 56.0242L648.291 59.5042" stroke="#4D2C5E" stroke-opacity="0.1" stroke-width="4" stroke-miterlimit="10" stroke-linecap="round" stroke-linejoin="round"/>
<path d="M664.351 74.364L657.161 77.834" stroke="#4D2C5E" stroke-opacity="0.1" stroke-width="4" stroke-miterlimit="10" stroke-linecap="round" stroke-linejoin="round"/>
<path d="M668.791 83.5542L661.601 87.0342" stroke="#4D2C5E" stroke-opacity="0.1" stroke-width="4" stroke-miterlimit="10" stroke-linecap="round" stroke-linejoin="round"/>
<path d="M677.661 101.894L670.471 105.364" stroke="#4D2C5E" stroke-opacity="0.1" stroke-width="4" stroke-miterlimit="10" stroke-linecap="round" stroke-linejoin="round"/>
<path d="M682.111 111.084L674.911 114.564" stroke="#4D2C5E" stroke-opacity="0.1" stroke-width="4" stroke-miterlimit="10" stroke-linecap="round" stroke-linejoin="round"/>
<path d="M40.0017 624.131L8.77175 638.801C7.10175 639.591 5.1118 638.871 4.3218 637.201L2.3218 632.941C1.5318 631.271 2.25177 629.281 3.92177 628.491L35.1518 613.821C36.8218 613.031 38.8118 613.751 39.6018 615.421L41.6018 619.681C42.3918 621.361 41.6717 623.351 40.0017 624.131Z" stroke="#4D2C5E" stroke-opacity="0.1" stroke-width="4" stroke-miterlimit="10" stroke-linecap="round"/>
<path d="M52.1318 657.451L36.8519 625.631L12.1318 637.501L27.4119 669.321L37.0519 722.561C40.2219 729.171 48.1518 731.951 54.7518 728.781L81.4419 715.961C88.0519 712.791 90.8319 704.861 87.6619 698.261L52.1318 657.451Z" stroke="#4D2C5E" stroke-opacity="0.1" stroke-width="4" stroke-miterlimit="10" stroke-linecap="round"/>
<path d="M31.752 693.331C31.752 693.331 36.852 685.071 50.412 685.541C63.972 686.011 66.252 673.661 66.252 673.661" stroke="#4D2C5E" stroke-opacity="0.1" stroke-width="4" stroke-miterlimit="10" stroke-linecap="round"/>
<path d="M83.481 109.46C95.3441 109.46 104.961 99.8436 104.961 87.9805C104.961 76.1174 95.3441 66.5005 83.481 66.5005C71.6179 66.5005 62.001 76.1174 62.001 87.9805C62.001 99.8436 71.6179 109.46 83.481 109.46Z" stroke="#4D2C5E" stroke-opacity="0.1" stroke-width="4" stroke-miterlimit="10" stroke-linecap="round" stroke-linejoin="round"/>
<path d="M113.591 130.68C118.335 130.68 122.181 126.835 122.181 122.09C122.181 117.346 118.335 113.5 113.591 113.5C108.847 113.5 105.001 117.346 105.001 122.09C105.001 126.835 108.847 130.68 113.591 130.68Z" stroke="#4D2C5E" stroke-opacity="0.1" stroke-width="4" stroke-miterlimit="10" stroke-linecap="round" stroke-linejoin="round"/>
</svg>
